<svg width="90" height="69" viewBox="0 0 90 69" fill="none" xmlns="http://www.w3.org/2000/svg">
<path d="M28.0764 9.71519C28.3651 10.0684 28.5544 10.4326 28.7474 10.8446C28.7794 10.9124 28.8113 10.9802 28.8441 11.0501C28.9494 11.2742 29.0539 11.4986 29.1584 11.7231C29.2329 11.8822 29.3074 12.0413 29.3819 12.2004C29.9614 13.4396 30.5312 14.6831 31.0979 15.9282C31.5862 17.0011 32.0793 18.0718 32.5747 19.1415C33.2467 20.5927 33.9116 22.0466 34.5664 23.5055C34.9189 24.2904 35.2752 25.0734 35.6365 25.8543C36.2097 27.0943 36.7769 28.337 37.3427 29.5803C37.3892 29.6823 37.4356 29.7843 37.4834 29.8894C37.9982 31.0209 38.5094 32.1535 39.0073 33.2925C39.5818 34.605 40.1906 35.9015 40.7975 37.1994C41.4215 38.5337 42.0371 39.8709 42.6389 41.2153C43.0977 42.2391 43.5658 43.2585 44.0359 44.2773C44.6493 45.607 45.2516 46.9411 45.8461 48.2793C46.3834 49.4885 46.9306 50.6919 47.4969 51.888C48.102 53.1664 48.6843 54.4537 49.2584 55.7462C49.9436 57.2884 50.6446 58.8232 51.352 60.3555C51.4516 60.5714 51.551 60.7874 51.6504 61.0035C51.7574 61.2358 51.8649 61.4679 51.9733 61.6996C52.0142 61.7881 52.055 61.8765 52.0971 61.9676C52.131 62.0402 52.165 62.1128 52.1999 62.1877C52.2687 62.376 52.2687 62.376 52.2687 62.7072H41.3933C40.8982 61.6518 40.4071 60.5964 39.9298 59.5332C39.868 59.3956 39.8061 59.2581 39.7443 59.1205C39.5855 58.7672 39.4269 58.4139 39.2684 58.0605C39.1747 57.8516 39.0809 57.6428 38.9871 57.434C38.8087 57.0368 38.6305 56.6393 38.4525 56.2419C38.3992 56.1233 38.346 56.0047 38.2911 55.8826C38.2148 55.7118 38.2148 55.7118 38.1369 55.5377C38.0932 55.4401 38.0495 55.3425 38.0045 55.242C37.7594 54.6786 37.5246 54.1107 37.2872 53.544L18.9765 53.4336L18.7546 54.096C18.6964 54.238 18.6359 54.379 18.5724 54.5188C18.5378 54.5955 18.5031 54.6722 18.4674 54.7513C18.4301 54.8329 18.3928 54.9145 18.3544 54.9986C18.3149 55.0859 18.2753 55.1732 18.2346 55.2631C18.1054 55.5481 17.9757 55.8329 17.846 56.1177C17.7563 56.3151 17.6668 56.5125 17.5772 56.7099C17.1404 57.6721 16.7018 58.6335 16.2624 59.5944C16.224 59.6784 16.1856 59.7624 16.1461 59.8489C15.9652 60.2444 15.784 60.6399 15.6026 61.0352C15.5696 61.1071 15.5366 61.179 15.5027 61.2531C15.4148 61.4448 15.3267 61.6365 15.2387 61.8282C15.109 62.1182 14.989 62.4125 14.8705 62.7072H3.88403C4.09569 62.0755 4.28837 61.5273 4.57069 60.9369C4.60381 60.8672 4.63693 60.7975 4.67106 60.7256C4.74161 60.5772 4.81241 60.429 4.88344 60.2808C5.0349 59.9649 5.18508 59.6484 5.33532 59.3319C5.41125 59.1719 5.48723 59.012 5.56328 58.8521C5.87085 58.2051 6.17265 57.5555 6.47112 56.9043C6.83329 56.1148 7.19705 55.3261 7.56308 54.5385C7.60419 54.45 7.64529 54.3615 7.68764 54.2704C7.77285 54.087 7.85806 53.9037 7.94327 53.7203C8.68399 52.1262 9.42002 50.5301 10.1492 48.9307C10.217 48.782 10.2848 48.6333 10.3526 48.4846C10.3862 48.411 10.4197 48.3374 10.4543 48.2616C10.8146 47.4717 11.1773 46.6829 11.5401 45.8941C12.1707 44.5232 12.8004 43.1518 13.4278 41.7795C13.4629 41.7027 13.498 41.626 13.5341 41.5469C13.9886 40.5525 14.4397 39.5567 14.8809 38.5563C15.0986 38.0687 15.3272 37.5861 15.5546 37.1029C15.9419 36.2789 16.3218 35.4516 16.7015 34.6242C16.7795 34.4546 16.8574 34.285 16.9353 34.1154C17.31 33.2993 17.684 32.483 18.0562 31.6658C18.1896 31.3731 18.3229 31.0805 18.4563 30.7878C18.4896 30.7148 18.5229 30.6418 18.5571 30.5666C19.1564 29.2522 19.7661 27.9428 20.3776 26.634C21.0385 25.2192 21.6919 23.8017 22.3301 22.3766C22.7963 21.3363 23.2713 20.3002 23.7484 19.2648C24.3618 17.9335 24.9686 16.5996 25.5689 15.2625C26.0004 14.3023 26.4396 13.3459 26.8817 12.3906C27.2914 11.5036 27.6881 10.6116 28.0764 9.71519ZM48.3846 1.87679C51.0829 1.87161 53.7812 1.86773 56.4795 1.86535C57.7325 1.86421 58.9855 1.86267 60.2386 1.86013C61.3316 1.85792 62.4246 1.8565 63.5176 1.85601C64.0956 1.85573 64.6735 1.85506 65.2515 1.85344C65.7972 1.85193 66.3429 1.85149 66.8886 1.85181C67.0872 1.85175 67.2859 1.85132 67.4845 1.85047C70.8657 1.8366 73.9615 2.40348 77.016 3.86399C77.0885 3.89855 77.161 3.93312 77.2357 3.96873C78.9784 4.81278 80.5166 5.93975 81.8988 7.28639C81.9887 7.37149 82.0785 7.45659 82.1711 7.54428C84.1678 9.46992 85.5631 11.9675 86.4488 14.5728C86.4895 14.6902 86.5303 14.8076 86.5723 14.9286C86.805 15.6355 86.9784 16.3509 87.1354 17.0775C87.154 17.1627 87.1725 17.2479 87.1916 17.3357C88.2247 22.3163 87.2253 28.0639 84.4348 32.3207C83.8582 33.1824 83.22 33.9578 82.5031 34.7074C82.2305 34.9907 82.2305 34.9907 81.9981 35.2883C79.9165 37.8672 76.2412 39.3726 73.1249 40.1442C73.0407 40.1656 72.9565 40.1871 72.8697 40.2092C69.5426 40.9953 66.3878 40.7376 62.9223 40.7376V62.7072H52.8236V31.1328C60.675 31.1052 60.675 31.1052 63.1419 31.0999C63.8802 31.0962 63.8802 31.0962 64.6184 31.092C64.9439 31.0901 65.2693 31.0895 65.5947 31.0896C68.9659 31.0895 72.0712 30.8576 74.6578 28.4625C76.8548 26.1604 77.3249 23.222 77.2632 20.1686C77.2077 18.242 76.4196 16.4242 75.2404 14.904C75.1716 14.8149 75.1028 14.7258 75.0319 14.634C74.0563 13.4651 72.7772 12.7675 71.3563 12.2544C71.2738 12.2218 71.1912 12.1892 71.1062 12.1556C69.8472 11.6874 68.478 11.6694 67.1504 11.6672C66.9916 11.6662 66.8329 11.665 66.6741 11.6638C66.2484 11.6608 65.8228 11.6592 65.3971 11.6577C64.9502 11.656 64.5034 11.653 64.0566 11.6502C63.2128 11.6451 62.369 11.641 61.5252 11.6373C60.5636 11.6331 59.602 11.6276 58.6404 11.6221C56.6645 11.6107 54.6886 11.6008 52.7126 11.592C52.446 11.0032 52.1794 10.4143 51.9129 9.82542C51.8227 9.62618 51.7325 9.42694 51.6423 9.22772C50.8267 7.42664 50.0189 5.6222 49.2147 3.81607C48.9736 3.27557 48.7275 2.7375 48.478 2.20079C48.3846 1.98719 48.3846 1.98719 48.3846 1.87679ZM28.6313 1.87679H39.5067C41.6576 6.51286 41.6576 6.51286 42.5849 8.58143C42.9886 9.47957 43.4014 10.3735 43.8139 11.2677C44.422 12.5862 45.0202 13.9086 45.6103 15.2352C46.2106 16.5843 46.8179 17.9299 47.4344 19.2717C47.4697 19.3485 47.5049 19.4252 47.5412 19.5043C47.608 19.6499 47.6749 19.7954 47.742 19.9408C47.81 20.0887 47.8776 20.2368 47.9446 20.3852C48.1256 20.782 48.3158 21.168 48.5295 21.5485C49.2818 22.9254 49.4122 24.0731 49.3858 25.6213C49.3855 25.8576 49.3857 26.0939 49.3863 26.3303C49.3866 26.965 49.3807 27.5996 49.3737 28.2342C49.3674 28.9001 49.3669 29.5659 49.3657 30.2317C49.3626 31.4895 49.3544 32.7472 49.3444 34.005C49.3332 35.4382 49.3277 36.8714 49.3227 38.3047C49.3123 41.2501 49.2948 44.1954 49.2724 47.1408C49.0261 46.8219 48.842 46.5211 48.6751 46.1541C48.6018 45.994 48.6018 45.994 48.5271 45.8307C48.4755 45.7165 48.4239 45.6024 48.3708 45.4848C48.2896 45.3068 48.2896 45.3068 48.2067 45.1251C48.0435 44.7669 47.881 44.4083 47.7188 44.0496C47.6744 43.9514 47.6299 43.8532 47.5841 43.752C47.4216 43.393 47.2593 43.034 47.0974 42.6748C46.8368 42.0972 46.5725 41.5214 46.3061 40.9464C45.695 39.6271 45.1006 38.3009 44.5098 36.9725C44.0229 35.8785 43.5275 34.7895 43.0163 33.7065C42.4228 32.4486 41.8609 31.1784 41.3031 29.9046C40.6832 28.4892 40.0488 27.0828 39.3819 25.6887C38.7761 24.4223 38.1895 23.1492 37.6202 21.8661C37.0437 20.5672 36.4606 19.2719 35.8654 17.9814C35.2044 16.5481 34.5483 15.1128 33.8956 13.6758C33.7174 13.2836 33.5393 12.8915 33.3611 12.4993C33.2961 12.3562 33.2961 12.3562 33.2297 12.2102C32.8077 11.2815 32.3844 10.3533 31.9605 9.42539C31.9263 9.35061 31.8922 9.27583 31.857 9.19878C31.4738 8.36007 31.089 7.52209 30.702 6.68512C30.2336 5.67204 29.7695 4.65711 29.3121 3.63911C29.2225 3.43992 29.1325 3.24089 29.0426 3.04186C28.9888 2.92181 28.935 2.80175 28.8797 2.67805C28.8316 2.57119 28.7836 2.46433 28.7341 2.35424C28.6313 2.09759 28.6313 2.09759 28.6313 1.87679Z" fill="#FDFDFD"/>
<path d="M28.0764 9.71519C28.3651 10.0684 28.5544 10.4326 28.7474 10.8446C28.7794 10.9124 28.8113 10.9802 28.8441 11.0501C28.9494 11.2742 29.0539 11.4986 29.1584 11.7231C29.2329 11.8822 29.3074 12.0413 29.3819 12.2004C29.9614 13.4396 30.5312 14.6831 31.0979 15.9282C31.5862 17.0011 32.0793 18.0718 32.5747 19.1415C33.2467 20.5927 33.9116 22.0466 34.5664 23.5055C34.9189 24.2904 35.2752 25.0734 35.6365 25.8543C36.2097 27.0943 36.7769 28.337 37.3427 29.5803C37.3892 29.6823 37.4356 29.7843 37.4834 29.8894C37.9982 31.0209 38.5094 32.1535 39.0073 33.2925C39.5818 34.605 40.1906 35.9015 40.7975 37.1994C41.4215 38.5337 42.0371 39.8709 42.6389 41.2153C43.0977 42.2391 43.5658 43.2585 44.0359 44.2773C44.6493 45.607 45.2516 46.9411 45.8461 48.2793C46.3834 49.4885 46.9306 50.6919 47.4969 51.888C48.102 53.1664 48.6843 54.4537 49.2584 55.7462C49.9436 57.2884 50.6446 58.8232 51.352 60.3555C51.4516 60.5714 51.551 60.7874 51.6504 61.0035C51.7574 61.2358 51.8649 61.4679 51.9733 61.6996C52.0142 61.7881 52.055 61.8765 52.0971 61.9676C52.131 62.0402 52.165 62.1128 52.1999 62.1877C52.2687 62.376 52.2687 62.376 52.2687 62.7072H41.3933C40.8982 61.6518 40.4071 60.5964 39.9298 59.5332C39.868 59.3956 39.8061 59.2581 39.7443 59.1205C39.5855 58.7672 39.4269 58.4139 39.2684 58.0605C39.1747 57.8516 39.0809 57.6428 38.9871 57.434C38.8087 57.0368 38.6305 56.6393 38.4525 56.2419C38.3992 56.1233 38.346 56.0047 38.2911 55.8826C38.2148 55.7118 38.2148 55.7118 38.1369 55.5377C38.0932 55.4401 38.0495 55.3425 38.0045 55.242C37.7594 54.6786 37.5246 54.1107 37.2872 53.544L18.9765 53.4336L18.7546 54.096C18.6964 54.238 18.6359 54.379 18.5724 54.5188C18.5378 54.5955 18.5031 54.6722 18.4674 54.7513C18.4301 54.8329 18.3928 54.9145 18.3544 54.9986C18.3149 55.0859 18.2753 55.1732 18.2346 55.2631C18.1054 55.5481 17.9757 55.8329 17.846 56.1177C17.7563 56.3151 17.6668 56.5125 17.5772 56.7099C17.1404 57.6721 16.7018 58.6335 16.2624 59.5944C16.224 59.6784 16.1856 59.7624 16.1461 59.8489C15.9652 60.2444 15.784 60.6399 15.6026 61.0352C15.5696 61.1071 15.5366 61.179 15.5027 61.2531C15.4148 61.4448 15.3267 61.6365 15.2387 61.8282C15.109 62.1182 14.989 62.4125 14.8705 62.7072H3.88403C4.09569 62.0755 4.28837 61.5273 4.57069 60.9369C4.60381 60.8672 4.63693 60.7975 4.67106 60.7256C4.74161 60.5772 4.81241 60.429 4.88344 60.2808C5.0349 59.9649 5.18508 59.6484 5.33532 59.3319C5.41125 59.1719 5.48723 59.012 5.56328 58.8521C5.87085 58.2051 6.17265 57.5555 6.47112 56.9043C6.83329 56.1148 7.19705 55.3261 7.56308 54.5385C7.60419 54.45 7.64529 54.3615 7.68764 54.2704C7.77285 54.087 7.85806 53.9037 7.94327 53.7203C8.68399 52.1262 9.42002 50.5301 10.1492 48.9307C10.217 48.782 10.2848 48.6333 10.3526 48.4846C10.3862 48.411 10.4197 48.3374 10.4543 48.2616C10.8146 47.4717 11.1773 46.6829 11.5401 45.8941C12.1707 44.5232 12.8004 43.1518 13.4278 41.7795C13.4629 41.7027 13.498 41.626 13.5341 41.5469C13.9886 40.5525 14.4397 39.5567 14.8809 38.5563C15.0986 38.0687 15.3272 37.5861 15.5546 37.1029C15.9419 36.2789 16.3218 35.4516 16.7015 34.6242C16.7795 34.4546 16.8574 34.285 16.9353 34.1154C17.31 33.2993 17.684 32.483 18.0562 31.6658C18.1896 31.3731 18.3229 31.0805 18.4563 30.7878C18.4896 30.7148 18.5229 30.6418 18.5571 30.5666C19.1564 29.2522 19.7661 27.9428 20.3776 26.634C21.0385 25.2192 21.6919 23.8017 22.3301 22.3766C22.7963 21.3363 23.2713 20.3002 23.7484 19.2648C24.3618 17.9335 24.9686 16.5996 25.5689 15.2625C26.0004 14.3023 26.4396 13.3459 26.8817 12.3906C27.2914 11.5036 27.6881 10.6116 28.0764 9.71519ZM48.3846 1.87679C51.0829 1.87161 53.7812 1.86773 56.4795 1.86535C57.7325 1.86421 58.9855 1.86267 60.2386 1.86013C61.3316 1.85792 62.4246 1.8565 63.5176 1.85601C64.0956 1.85573 64.6735 1.85506 65.2515 1.85344C65.7972 1.85193 66.3429 1.85149 66.8886 1.85181C67.0872 1.85175 67.2859 1.85132 67.4845 1.85047C70.8657 1.8366 73.9615 2.40348 77.016 3.86399C77.0885 3.89855 77.161 3.93312 77.2357 3.96873C78.9784 4.81278 80.5166 5.93975 81.8988 7.28639C81.9887 7.37149 82.0785 7.45659 82.1711 7.54428C84.1678 9.46992 85.5631 11.9675 86.4488 14.5728C86.4895 14.6902 86.5303 14.8076 86.5723 14.9286C86.805 15.6355 86.9784 16.3509 87.1354 17.0775C87.154 17.1627 87.1725 17.2479 87.1916 17.3357C88.2247 22.3163 87.2253 28.0639 84.4348 32.3207C83.8582 33.1824 83.22 33.9578 82.5031 34.7074C82.2305 34.9907 82.2305 34.9907 81.9981 35.2883C79.9165 37.8672 76.2412 39.3726 73.1249 40.1442C73.0407 40.1656 72.9565 40.1871 72.8697 40.2092C69.5426 40.9953 66.3878 40.7376 62.9223 40.7376V62.7072H52.8236V31.1328C60.675 31.1052 60.675 31.1052 63.1419 31.0999C63.8802 31.0962 63.8802 31.0962 64.6184 31.092C64.9439 31.0901 65.2693 31.0895 65.5947 31.0896C68.9659 31.0895 72.0712 30.8576 74.6578 28.4625C76.8548 26.1604 77.3249 23.222 77.2632 20.1686C77.2077 18.242 76.4196 16.4242 75.2404 14.904C75.1716 14.8149 75.1028 14.7258 75.0319 14.634C74.0563 13.4651 72.7772 12.7675 71.3563 12.2544C71.2738 12.2218 71.1912 12.1892 71.1062 12.1556C69.8472 11.6874 68.478 11.6694 67.1504 11.6672C66.9916 11.6662 66.8329 11.665 66.6741 11.6638C66.2484 11.6608 65.8228 11.6592 65.3971 11.6577C64.9502 11.656 64.5034 11.653 64.0566 11.6502C63.2128 11.6451 62.369 11.641 61.5252 11.6373C60.5636 11.6331 59.602 11.6276 58.6404 11.6221C56.6645 11.6107 54.6886 11.6008 52.7126 11.592C52.446 11.0032 52.1794 10.4143 51.9129 9.82542C51.8227 9.62618 51.7325 9.42694 51.6423 9.22772C50.8267 7.42664 50.0189 5.6222 49.2147 3.81607C48.9736 3.27557 48.7275 2.7375 48.478 2.20079C48.3846 1.98719 48.3846 1.98719 48.3846 1.87679ZM28.6313 1.87679H39.5067C41.6576 6.51286 41.6576 6.51286 42.5849 8.58143C42.9886 9.47957 43.4014 10.3735 43.8139 11.2677C44.422 12.5862 45.0202 13.9086 45.6103 15.2352C46.2106 16.5843 46.8179 17.9299 47.4344 19.2717C47.4697 19.3485 47.5049 19.4252 47.5412 19.5043C47.608 19.6499 47.6749 19.7954 47.742 19.9408C47.81 20.0887 47.8776 20.2368 47.9446 20.3852C48.1256 20.782 48.3158 21.168 48.5295 21.5485C49.2818 22.9254 49.4122 24.0731 49.3858 25.6213C49.3855 25.8576 49.3857 26.0939 49.3863 26.3303C49.3866 26.965 49.3807 27.5996 49.3737 28.2342C49.3674 28.9001 49.3669 29.5659 49.3657 30.2317C49.3626 31.4895 49.3544 32.7472 49.3444 34.005C49.3332 35.4382 49.3277 36.8714 49.3227 38.3047C49.3123 41.2501 49.2948 44.1954 49.2724 47.1408C49.0261 46.8219 48.842 46.5211 48.6751 46.1541C48.6018 45.994 48.6018 45.994 48.5271 45.8307C48.4755 45.7165 48.4239 45.6024 48.3708 45.4848C48.2896 45.3068 48.2896 45.3068 48.2067 45.1251C48.0435 44.7669 47.881 44.4083 47.7188 44.0496C47.6744 43.9514 47.6299 43.8532 47.5841 43.752C47.4216 43.393 47.2593 43.034 47.0974 42.6748C46.8368 42.0972 46.5725 41.5214 46.3061 40.9464C45.695 39.6271 45.1006 38.3009 44.5098 36.9725C44.0229 35.8785 43.5275 34.7895 43.0163 33.7065C42.4228 32.4486 41.8609 31.1784 41.3031 29.9046C40.6832 28.4892 40.0488 27.0828 39.3819 25.6887C38.7761 24.4223 38.1895 23.1492 37.6202 21.8661C37.0437 20.5672 36.4606 19.2719 35.8654 17.9814C35.2044 16.5481 34.5483 15.1128 33.8956 13.6758C33.7174 13.2836 33.5393 12.8915 33.3611 12.4993C33.2961 12.3562 33.2961 12.3562 33.2297 12.2102C32.8077 11.2815 32.3844 10.3533 31.9605 9.42539C31.9263 9.35061 31.8922 9.27583 31.857 9.19878C31.4738 8.36007 31.089 7.52209 30.702 6.68512C30.2336 5.67204 29.7695 4.65711 29.3121 3.63911C29.2225 3.43992 29.1325 3.24089 29.0426 3.04186C28.9888 2.92181 28.935 2.80175 28.8797 2.67805C28.8316 2.57119 28.7836 2.46433 28.7341 2.35424C28.6313 2.09759 28.6313 2.09759 28.6313 1.87679Z" fill="#FDFDFD"/>
<path d="M28.0764 33.2304C28.397 33.3899 28.4272 33.5941 28.5654 33.9208C28.6195 34.0472 28.6736 34.1736 28.7294 34.3038C28.7585 34.3726 28.7875 34.4413 28.8175 34.5122C28.9762 34.8872 29.1376 35.2611 29.2989 35.6351C29.3336 35.7157 29.3684 35.7963 29.4042 35.8793C29.8037 36.8032 30.2203 37.7194 30.637 38.6357C31.8425 41.287 31.8425 41.287 32.3628 42.4833C32.4028 42.5741 32.4427 42.6649 32.4839 42.7585C32.629 43.0957 32.7373 43.3476 32.7373 43.7184H23.5265C23.6151 43.2777 23.7086 42.9689 23.888 42.567C23.9648 42.3941 23.9648 42.3941 24.0432 42.2177L24.2062 41.8554C24.283 41.6825 24.283 41.6825 24.3614 41.5061C24.6445 40.8716 24.9349 40.2408 25.2314 39.6125C25.6378 38.7509 26.028 37.8824 26.4156 37.0123C26.5298 36.7561 26.6443 36.4999 26.7588 36.2438C27.2059 35.2426 27.6457 34.2387 28.0764 33.2304Z" fill="#020202"/>
<path d="M82.7866 34.3344C82.7866 34.6327 82.7557 34.8785 82.6965 35.1693C82.6797 35.256 82.663 35.3426 82.6458 35.4319C82.5647 35.6592 82.5647 35.6592 82.2318 35.88L82.0098 36.1008L81.8572 35.9421C81.6844 35.7596 81.6844 35.7596 81.455 35.6592L82.7866 34.3344Z" fill="#080808"/>
<path d="M28.0765 33.2304C28.2984 33.3408 28.2984 33.3408 28.3929 33.5689C28.4724 33.8241 28.5519 34.0793 28.6313 34.3344L27.6326 34.6656L27.5216 34.4448C27.6321 34.1576 27.6321 34.1576 27.7921 33.8238C27.8446 33.7131 27.8971 33.6024 27.9512 33.4883C27.9925 33.4032 28.0339 33.3181 28.0765 33.2304Z" fill="#101010"/>
<path d="M4.77183 60.4992L4.8828 60.72L5.21572 60.8304L5.10475 61.0512L4.8828 60.9408C4.73259 61.259 4.73259 61.259 4.8828 61.4928H4.66085V61.7136L4.8828 61.824L4.32793 62.1552L4.4389 62.4864L3.88403 62.5968C4.17662 61.8962 4.46948 61.1958 4.77183 60.4992Z" fill="#EAEAEA"/>
<path d="M27.2996 34.9968C27.5216 35.328 27.5216 35.328 27.4947 35.6019C27.4715 35.7005 27.4483 35.7991 27.4245 35.9007C27.4019 36.0002 27.3793 36.0997 27.356 36.2022C27.3374 36.278 27.3188 36.3539 27.2996 36.432C26.9667 36.5424 26.9667 36.5424 26.7448 36.432C26.9021 35.9383 27.0902 35.4703 27.2996 34.9968Z" fill="#131313"/>
<path d="M86.5599 27.4896L86.6708 27.7104H86.8928C86.8772 28.0435 86.8602 28.2887 86.6262 28.5397C86.4612 28.6745 86.2889 28.8003 86.116 28.9248C86.1689 28.7269 86.2221 28.5292 86.2755 28.3314C86.3051 28.2213 86.3347 28.1111 86.3652 27.9976C86.4489 27.7104 86.4489 27.7104 86.5599 27.4896Z" fill="#121212"/>
<path d="M51.9359 9.82562C52.4908 10.6536 52.4908 10.6536 52.4908 11.04L52.0469 11.1504C51.7995 10.6727 51.8333 10.3463 51.9359 9.82562Z" fill="#141414"/>
<path d="M77.4599 19.872L77.7928 19.9824V20.6448H77.5709L77.4599 21.9696H77.3489C77.346 21.6614 77.3438 21.3532 77.342 21.045C77.3411 20.9573 77.3401 20.8697 77.3392 20.7794C77.3364 20.1178 77.3364 20.1178 77.4599 19.872Z" fill="#E6E6E6"/>
<path d="M35.9556 18.1056C36.5105 18.9336 36.5105 18.9336 36.5105 19.32C36.1776 19.2096 36.1776 19.2096 35.9556 18.8784L35.7337 18.9888L35.6227 18.4368H35.8446L35.9556 18.1056Z" fill="#141414"/>
<path d="M36.7324 19.872C37.0609 20.2434 37.1677 20.6108 37.2873 21.0864H36.9543C36.8953 20.9466 36.8378 20.8062 36.7809 20.6655C36.7488 20.5874 36.7166 20.5093 36.6834 20.4288C36.6214 20.2032 36.6214 20.2032 36.7324 19.872Z" fill="#131313"/>
<path d="M86.7818 25.7232H87.0037C86.8927 26.5433 86.8927 26.5433 86.7818 26.9376H86.5598L86.4489 26.1648H86.6708L86.7818 25.7232Z" fill="#ECECEC"/>
<path d="M30.7398 6.73438C31.0683 7.10579 31.1751 7.47313 31.2946 7.94878L30.9617 7.72798V7.50718L30.5178 7.39678L30.7398 6.73438Z" fill="#121212"/>
<path d="M5.65973 58.6224H5.88168L5.65973 59.1744L5.88168 59.2848H5.65973L5.56956 59.6091L5.43778 59.9472L5.10486 60.0576C5.26223 59.5639 5.45033 59.0959 5.65973 58.6224Z" fill="#E8E8E8"/>
<path d="M38.841 57.0768C39.1187 57.4012 39.226 57.6486 39.2849 58.0704H39.0629L38.952 57.8496C38.7282 57.7245 38.7282 57.7245 38.5081 57.6288L38.841 57.0768Z" fill="#151515"/>
<path d="M87.1146 17.4432H87.2256C87.3313 17.969 87.3458 18.4552 87.3366 18.9888C87.0996 18.7018 86.926 18.4807 86.8927 18.1056C86.9967 17.7468 86.9967 17.7468 87.1146 17.4432Z" fill="#D1D1D1"/>
<path d="M30.4069 14.6832C30.7004 15.0283 30.8335 15.3553 30.9618 15.7872L30.4069 15.6768V15.2352C30.3034 14.9923 30.3034 14.9923 30.1849 14.7936L30.4069 14.6832Z" fill="#E7E7E7"/>
<path d="M24.8582 40.4064C25.0802 40.6272 25.0802 40.6272 25.0802 40.9584L24.8582 41.1792C24.7869 41.4076 24.7869 41.4076 24.7472 41.6208H24.4143C24.5489 41.2096 24.6927 40.8062 24.8582 40.4064Z" fill="#171717"/>
<path d="M26.4119 36.984C26.6338 37.3152 26.6338 37.3152 26.6338 37.7568C26.4674 37.95 26.4674 37.95 26.3009 38.088L26.0789 37.9776L26.4119 36.984ZM15.6474 36.3216L15.9803 36.432L15.5364 37.4256L15.3145 37.2048C15.3561 36.9702 15.3561 36.9702 15.4254 36.7632H15.6474L15.5364 36.432L15.6474 36.3216Z" fill="#141414"/>
<path d="M37.5093 21.6384C37.8028 21.9835 37.9359 22.3105 38.0642 22.7424L37.5093 22.8528L37.5648 22.6596C37.6363 22.3818 37.6363 22.3818 37.6203 21.9696L37.3983 21.8592L37.5093 21.6384Z" fill="#151515"/>
<path d="M71.8003 11.9232L71.6893 12.2544L70.6906 12.0336C71.1178 11.7502 71.3104 11.8312 71.8003 11.9232Z" fill="#E1E1E1"/>
<path d="M38.286 55.6416H38.6189C38.7987 55.9256 38.8458 56.0475 38.7993 56.3868L38.7299 56.6352C38.4319 56.3387 38.3903 56.0417 38.286 55.6416Z" fill="#ECECEC"/>
<path d="M32.0715 42.0624C32.6264 42.8904 32.6264 42.8904 32.6264 43.2768C32.4114 43.2009 32.4114 43.2009 32.1825 43.056C32.0722 42.7086 32.0715 42.4305 32.0715 42.0624Z" fill="#1C1C1C"/>
<path d="M73.6868 2.31839L73.9087 2.42879V2.64959C73.5619 2.59209 73.2151 2.53459 72.8683 2.47709L72.577 2.42879C72.9747 2.17014 73.234 2.21067 73.6868 2.31839Z" fill="#1B1B1B"/>
<path d="M49.2725 46.2576L49.6054 46.4784C49.5152 46.8579 49.5152 46.8579 49.3835 47.2512L49.0505 47.3616L49.0991 47.1822C49.172 46.876 49.2228 46.5684 49.2725 46.2576Z" fill="#131313"/>
<path d="M35.7336 26.8272H36.0666C36.24 27.1377 36.24 27.1377 36.3995 27.4896L36.2885 27.8208H35.9556L35.9695 27.5103C35.9857 27.1409 35.9857 27.1409 35.7336 26.8272ZM39.9507 3.09119C40.2441 3.43624 40.3773 3.76329 40.5055 4.19519C40.1726 4.08479 40.1726 4.08479 39.9784 3.76739C39.8397 3.42239 39.8397 3.42239 39.9507 3.09119Z" fill="#E4E4E4"/>
<path d="M11.7632 45.3744L12.0961 45.4848C11.8048 46.1196 11.8048 46.1196 11.4303 46.368L11.7632 45.3744Z" fill="#EAEAEA"/>
<path d="M83.6745 33.2304C83.7359 33.4595 83.7855 33.6547 83.7855 33.8928L83.1196 34.1136C83.2718 33.7875 83.4513 33.513 83.6745 33.2304Z" fill="#131313"/>
<path d="M28.2983 33.4512C28.7422 33.672 28.7422 33.672 28.8393 33.8859C28.8532 34.1136 28.8532 34.1136 28.6313 34.4448L28.2983 33.4512Z" fill="#E9E9E9"/>
<path d="M46.3872 17.2224C46.6262 17.5119 46.7646 17.7351 46.8311 18.1056L46.3872 17.9952C46.3449 17.7754 46.3081 17.5544 46.2762 17.3328L46.3872 17.2224Z" fill="#E8E8E8"/>
<path d="M14.7596 38.8608L14.9815 38.9712L14.7596 39.744L14.4266 39.6336L14.7596 38.8608Z" fill="#EAEAEA"/>
<path d="M39.3958 58.6224H39.6177L39.8396 59.2848L39.3958 59.3952V58.6224Z" fill="#151515"/>
<path d="M18.9766 53.544L19.1986 53.6544L18.7547 54.5376H18.5327C18.6502 54.1619 18.7557 53.8737 18.9766 53.544Z" fill="#1E1E1E"/>
<path d="M40.9495 37.7568C41.2228 38.0287 41.2821 38.2764 41.3934 38.64H40.9495V37.7568Z" fill="#E6E6E6"/>
<path d="M39.5067 34.6656C39.7457 34.9551 39.8841 35.1783 39.9506 35.5488L39.6177 35.4384V35.2176H39.3958L39.5067 34.6656Z" fill="#E7E7E7"/>
<path d="M76.9051 24.5088L77.238 24.84C77.127 25.1712 77.127 25.1712 76.8981 25.3023L76.6831 25.392L76.9051 24.5088Z" fill="#E5E5E5"/>
<path d="M32.6264 10.8192C32.8637 11.0553 32.8957 11.1651 32.9593 11.4816C32.7512 11.4471 32.7512 11.4471 32.5154 11.3712L32.2935 11.04L32.6264 10.8192Z" fill="#151515"/>
<path d="M43.058 10.1568H43.2799C43.6128 10.7916 43.6128 10.7916 43.6128 11.04L43.1689 10.9296V10.5984C43.135 10.4505 43.0985 10.3031 43.058 10.1568ZM32.0715 9.6048H32.5154L32.6264 10.2672L32.4045 10.3776L32.0715 9.6048Z" fill="#EBEBEB"/>
<path d="M76.6831 3.53278C76.9059 3.56443 77.128 3.60108 77.349 3.64318L77.4599 4.08478C76.8218 3.89158 76.8218 3.89158 76.5721 3.64318L76.6831 3.53278Z" fill="#1D1D1D"/>
<path d="M82.7867 34.3344C82.7867 34.7659 82.6196 34.8992 82.3428 35.2176L82.0099 35.1072L82.7867 34.3344Z" fill="#2B2B2B"/>
<path d="M22.3058 22.4112L22.5278 22.8528C22.3752 23.0736 22.3752 23.0736 22.1948 23.2944H21.9729C22.181 22.6596 22.181 22.6596 22.3058 22.4112Z" fill="#E3E3E3"/>
<path d="M15.0924 61.272H15.4253C15.2311 61.9068 15.2311 61.9068 14.9814 62.1552L15.0924 61.272Z" fill="#E6E6E6"/>
<path d="M44.1677 36.2112C44.4658 36.5077 44.5074 36.8047 44.6116 37.2048C44.3093 36.945 44.1884 36.6942 44.0568 36.3216L44.1677 36.2112Z" fill="#1C1C1C"/>
<path d="M18.0888 31.0224L18.4217 31.1328L18.0888 31.7952C17.8668 31.5744 17.8668 31.5744 17.8668 31.2432H18.0888V31.0224Z" fill="#161616"/>
<path d="M47.1639 18.768H47.6078L47.4969 19.4304C47.1639 19.0164 47.1639 19.0164 47.1639 18.768Z" fill="#131313"/>
<path d="M33.2922 12.144L33.8471 12.3648L33.6252 12.8064C33.2922 12.3924 33.2922 12.3924 33.2922 12.144Z" fill="#EBEBEB"/>
<path d="M31.7385 8.94238C32.0715 9.35638 32.0715 9.35638 32.0715 9.60478L31.6276 9.71518L31.7385 8.94238Z" fill="#181818"/>
<path d="M77.6819 4.3056L78.3477 4.5264V4.8576L78.0148 4.6368L77.9038 4.8576L77.6819 4.3056Z" fill="#E5E5E5"/>
<path d="M48.6067 2.53918C48.8457 2.82865 48.9841 3.05189 49.0506 3.42238H48.7177L48.6067 2.53918Z" fill="#141414"/>
<path d="M43.9458 44.0496L44.2787 44.16L44.3897 44.712L44.1677 44.8224C44.0057 44.5301 43.9458 44.3925 43.9458 44.0496Z" fill="#151515"/>
<path d="M76.0173 26.6064C76.0787 26.8355 76.1282 27.0307 76.1282 27.2688L75.5734 27.3792L76.0173 26.6064Z" fill="#E2E2E2"/>
<path d="M39.1738 25.0608C39.3888 25.1505 39.3888 25.1505 39.6177 25.2816L39.7287 25.6128L39.3958 25.7232L39.1738 25.0608Z" fill="#ECECEC"/>
<path d="M26.9667 11.8128L27.1887 11.9232L26.8557 12.696L26.6338 12.4752C26.6754 12.2406 26.6754 12.2406 26.7448 12.0336H26.9667V11.8128Z" fill="#1B1B1B"/>
<path d="M43.9458 45.0432H44.3897L44.5007 45.4848C44.2857 45.4503 44.2857 45.4503 44.0568 45.3744L43.9458 45.0432Z" fill="#ECECEC"/>
<path d="M46.6091 40.848L46.8311 40.9584L46.7201 41.6208L46.4982 41.4C46.5398 41.1102 46.5398 41.1102 46.6091 40.848Z" fill="#E9E9E9"/>
<path d="M45.3884 38.8608C45.5822 39.15 45.6534 39.3066 45.7214 39.6336L45.2775 39.4128L45.3884 38.8608Z" fill="#181818"/>
<path d="M45.0554 38.1984C45.3884 38.6124 45.3884 38.6124 45.3884 38.8608L44.9445 38.64L45.0554 38.1984Z" fill="#161616"/>
<path d="M29.5191 36.432C29.852 36.846 29.852 36.846 29.852 37.0944H29.5191C29.4766 36.9116 29.4398 36.7274 29.4081 36.5424L29.5191 36.432Z" fill="#1C1C1C"/>
<path d="M28.0764 33.2304L28.2984 33.3408L28.0764 34.0032L27.8545 33.8928L28.0764 33.2304Z" fill="#2C2C2C"/>
<path d="M84.0073 32.3472L84.3403 32.4576L83.8964 33.12C83.7854 32.7888 83.7854 32.7888 83.8894 32.5473L84.0073 32.3472Z" fill="#E8E8E8"/>
<path d="M25.9679 14.352L26.3008 14.6832L25.746 15.0144L25.9679 14.352Z" fill="#E5E5E5"/>
<path d="M51.4919 9.16321H51.7139L51.9358 9.82561H51.6029L51.4919 9.16321Z" fill="#151515"/>
<path d="M37.6202 54.2064L38.0641 54.4272L37.9532 54.8688C37.6202 54.4548 37.6202 54.4548 37.6202 54.2064Z" fill="#E3E3E3"/>
<path d="M46.4982 49.7904L46.9421 49.9008L46.8311 50.4528C46.5938 50.2167 46.5618 50.1069 46.4982 49.7904Z" fill="#171717"/>
<path d="M30.5178 38.64C30.8508 39.0402 30.8508 39.0402 30.8508 39.4128L30.5178 39.3024L30.6288 38.9712L30.4069 38.8608L30.5178 38.64Z" fill="#222222"/>
<path d="M80.5672 36.432L80.7891 36.5424L80.6781 36.6528L80.9001 36.8736H80.5672L80.4562 37.0944C80.3868 36.8874 80.3868 36.8874 80.3452 36.6528L80.5672 36.432Z" fill="#121212"/>
<path d="M19.5314 28.152L19.7534 28.2624L19.4204 28.9248L19.1985 28.8144L19.5314 28.152Z" fill="#151515"/>
<path d="M22.8606 21.1968L23.1935 21.4176V21.7488L22.7496 21.6384L22.8606 21.1968Z" fill="#ECECEC"/>
<path d="M32.7373 19.7616C33.0702 20.1756 33.0702 20.1756 33.0702 20.424L32.6263 20.2032L32.7373 19.7616Z" fill="#E5E5E5"/>
<path d="M75.7953 15.5664L76.2392 15.6768V16.2288C75.7953 15.6906 75.7953 15.6906 75.7953 15.5664Z" fill="#EBEBEB"/>
<path d="M28.5204 10.5984C28.8533 11.0124 28.8533 11.0124 28.8533 11.2608L28.4094 11.04L28.5204 10.5984Z" fill="#E5E5E5"/>
<path d="M81.0111 6.51361L81.566 7.06561L81.0111 6.95521V6.51361Z" fill="#E8E8E8"/>
<path d="M4.99379 60.0576L5.32671 60.168L5.10476 60.6096L4.88281 60.4992L4.99379 60.0576Z" fill="#E5E5E5"/>
<path d="M18.3107 54.3168L18.5326 54.4272L18.3107 55.0896L18.0887 54.648L18.3107 54.5376V54.3168Z" fill="#EAEAEA"/>
<path d="M10.6535 47.8032L10.8754 48.1344L10.6535 48.4656H10.4315L10.6535 47.8032Z" fill="#DBDBDB"/>
<path d="M45.9432 39.6336L46.3871 39.8544L46.0542 39.9648L45.9432 40.1856C45.8808 39.9717 45.8808 39.9717 45.8323 39.744L45.9432 39.6336Z" fill="#EAEAEA"/>
<path d="M37.3983 29.808L37.7312 29.9184C37.8075 30.1461 37.8075 30.1461 37.8422 30.36L37.6203 30.4704L37.3983 29.808Z" fill="#171717"/>
<path d="M20.4192 26.496L20.7521 26.6064L20.6411 26.9376L20.3082 27.048L20.4192 26.496Z" fill="#E4E4E4"/>
<path d="M26.0789 13.6896H26.3008L26.0789 14.352H25.8569L26.0789 13.6896Z" fill="#151515"/>
<path d="M72.3551 12.3648C72.5701 12.3993 72.5701 12.3993 72.799 12.4752L72.91 12.8064L72.2441 12.5856L72.3551 12.3648Z" fill="#DADADA"/>
<path d="M43.7238 11.7024L44.0567 11.8128C44.133 12.0405 44.133 12.0405 44.1677 12.2544L43.8347 12.144C43.7584 11.9163 43.7584 11.9163 43.7238 11.7024Z" fill="#EBEBEB"/>
<path d="M50.4932 6.62402L50.7151 7.06562H50.1603C50.2713 6.73442 50.2713 6.73442 50.4932 6.62402Z" fill="#1C1C1C"/>
<path d="M8.54501 52.44L8.32306 53.1024H8.21209C8.20735 52.9185 8.20758 52.7343 8.21209 52.5504C8.32306 52.44 8.32306 52.44 8.54501 52.44Z" fill="#151515"/>
<path d="M15.0924 38.088C15.2103 38.295 15.2103 38.295 15.3144 38.5296L15.2034 38.7504L14.8705 38.64L15.0924 38.088Z" fill="#E4E4E4"/>
<path d="M38.508 32.4576C38.7454 32.6937 38.7773 32.8034 38.841 33.12L38.508 33.0096C38.3971 32.6784 38.3971 32.6784 38.508 32.4576Z" fill="#E7E7E7"/>
<path d="M74.9075 27.7104L75.2404 27.9312L74.7965 28.2624L74.9075 27.7104Z" fill="#151515"/>
<path d="M25.1912 15.2352L25.6351 15.3456L25.3021 15.7872L25.1912 15.2352Z" fill="#111111"/>
<path d="M73.4649 12.8064L73.3539 13.1376L72.91 12.8064C73.132 12.696 73.132 12.696 73.4649 12.8064Z" fill="#E5E5E5"/>
<path d="M29.4081 12.4752H29.741L29.852 12.9168L29.63 13.0272L29.4081 12.4752Z" fill="#161616"/>
<path d="M41.0604 5.8512L41.3933 5.9616C41.4696 6.1893 41.4696 6.1893 41.5043 6.4032L41.1714 6.2928C41.0951 6.0651 41.0951 6.0651 41.0604 5.8512Z" fill="#E6E6E6"/>
<path d="M15.0924 61.9344L15.2034 62.1552L15.5363 62.2656L14.9814 62.376L15.0924 61.9344Z" fill="#141414"/>
<path d="M37.3983 53.8752L37.6203 54.3168H37.3983L37.2874 54.5376L37.3983 53.8752Z" fill="#171717"/>
<path d="M46.2762 49.2384L46.7201 49.4592L46.6092 49.68H46.3872L46.2762 49.2384Z" fill="#131313"/>
<path d="M48.6067 45.264L48.8287 45.4848L48.4957 45.816L48.3848 45.3744L48.6067 45.264Z" fill="#EAEAEA"/>
<path d="M43.058 42.3936L43.28 42.8352L42.8361 42.7248L43.058 42.3936Z" fill="#E5E5E5"/>
<path d="M42.725 41.6208L43.1689 41.8416L43.0579 42.1728C42.725 41.745 42.725 41.745 42.725 41.6208Z" fill="#171717"/>
<path d="M19.8644 26.8272H20.3083L20.0863 27.2688L19.8644 26.8272Z" fill="#191919"/>
<path d="M87.0037 16.6704L87.3366 16.7808L87.2256 17.112H87.0037V16.6704Z" fill="#1D1D1D"/>
<path d="M26.6338 12.9168L26.9667 13.0272L26.7448 13.3584H26.5228L26.6338 12.9168Z" fill="#E6E6E6"/>
<path d="M82.7866 7.94879L83.0086 8.05919C83.0779 8.34209 83.0779 8.34209 83.1196 8.61119L82.6757 8.16959L82.7866 7.94879Z" fill="#181818"/>
</svg>
